<svg xmlns="http://www.w3.org/2000/svg" xmlns:xlink="http://www.w3.org/1999/xlink" version="1.1" id="Layer_1" x="0px" y="0px" width="50px" height="50px" viewBox="5.0 -10.0 100.0 135.0" enable-background="new 0 0 100 100" xml:space="preserve">
<path fill="#ffffff" d="M98,50C98,23.533,76.467,2,50,2C23.533,2,2,23.533,2,50s21.533,48,48,48C76.467,98,98,76.467,98,50z M49.308,59.508  L31.675,41.876c-0.383-0.383-0.383-1.002,0-1.385s1.002-0.383,1.385,0L50,57.431l16.94-16.939c0.382-0.383,1.002-0.383,1.385,0  c0.191,0.191,0.287,0.441,0.287,0.692s-0.096,0.501-0.287,0.692L50.692,59.508C50.31,59.891,49.69,59.891,49.308,59.508z"/>
</svg>